Coordinates
version=1
nRows=8
nColumns=33
inDegrees=yes

Units are S.I. units (second, meters, Newtons, ...)
Angles are in degrees.

endheader
time	ground_thorax_rot_x	ground_thorax_rot_y	ground_thorax_rot_z	ground_thorax_tx	ground_thorax_ty	ground_thorax_tz	clav_prot_r	clav_elev_r	scapula_abduction_r	scapula_elevation_r	scapula_upward_rot_r	scapula_winging_r	shoulder_elv_r	plane_of_elev_r	axial_rot_r	elbow_flexion_r	pro_sup_r	wrist_flex_r	wrist_dev_r	clav_prot_l	clav_elev_l	scapula_abduction_l	scapula_elevation_l	scapula_upward_rot_l	scapula_winging_l	shoulder_elv_l	plane_of_elev_l	axial_rot_l	elbow_flexion_l	pro_sup_l	wrist_flex_l	wrist_dev_l
      4.59000000	     38.89871852	      6.69671939	      9.15601553	    -89.78371730	    788.47585574	      5.54672156	     17.60767921	     42.94840317	     45.00000000	     45.00000000	    -29.26792821	  -1161.01760227	  -1553.21625607	    145.94080488	   -150.22603772	   1450.14198712	     22.73372372	     16.96979966	     13.33936427	      7.71379969	    -45.00000000	    -45.00000000	     45.00000000	    -17.13409513	   2247.76656605	  -3532.85443631	     24.66005713	     -9.41801758	    723.78523303	     34.67242044	     11.87585841	    -20.87298152
      4.60000000	     39.00443348	      6.37050877	      8.54928122	    -91.99282781	    789.98983898	      5.49971460	     16.55796798	     42.99377886	     45.00000000	     45.00000000	    -28.21661008	  -1161.32019397	  -1553.04337377	    146.16331692	   -149.62974034	   1450.41625638	     23.20729748	     17.34529372	     13.06754543	      7.79560952	    -45.00000000	    -45.00000000	     45.00000000	    -16.31768350	   2248.11382548	  -3532.70462951	     24.61165005	    -10.30393589	    724.09700118	     34.68694590	     11.38614879	    -21.02351452
      4.61000000	     38.99651948	      6.38576589	      8.35161275	    -94.57396485	    791.59280101	      5.45106829	     16.33193474	     42.99258571	     45.00000000	     45.00000000	    -27.94780847	  -1161.66813854	  -1552.81226626	    146.24939799	   -149.13202373	   1450.69612354	     23.57900984	     17.50228451	     12.71903237	      7.66433817	    -45.00000000	    -45.00000000	     45.00000000	    -15.98679346	   2248.56622524	  -3532.48674646	     24.56740984	    -10.79848116	    724.48346303	     34.35568456	     11.24103199	    -21.16633540
      4.62000000	     38.98594668	      6.47345080	      8.26843608	    -97.52582965	    793.29009482	      5.41352689	     16.41141159	     43.11540809	     45.00000000	     45.00000000	    -27.91720744	  -1162.05834108	  -1552.55785893	    146.24210119	   -149.05707686	   1450.93032525	     23.77245946	     17.60612626	     12.23912052	      7.62411399	    -45.00000000	    -45.00000000	     45.00000000	    -15.76356279	   2249.02670517	  -3532.16451352	     24.50057194	    -11.20515300	    724.71963391	     33.78461798	     11.11123449	    -21.21177634
      4.63000000	     38.92386023	      6.70315142	      8.33795772	   -100.83848804	    795.07897095	      5.39113838	     16.68394566	     43.11860929	     45.00000000	     45.00000000	    -28.36310820	  -1162.43499124	  -1552.20760902	    146.11554956	   -149.29294594	   1451.12016697	     23.90208187	     17.68579303	     11.76778745	      7.72655878	    -45.00000000	    -45.00000000	     45.00000000	    -15.98051131	   2249.45268838	  -3531.84290423	     24.51498649	    -11.55126824	    724.87089830	     32.99422376	     11.03476580	    -21.20170325
      4.64000000	     38.94406604	      6.61923480	      8.06447252	   -104.49976875	    796.95761707	      5.38698183	     16.08495755	     43.05926011	     45.00000000	     45.00000000	    -27.95071618	  -1162.80692149	  -1551.96529858	    146.29842173	   -149.15741082	   1451.35303126	     24.07134420	     17.89378987	     11.51708433	      7.57238437	    -45.00000000	    -45.00000000	     45.00000000	    -15.51274584	   2249.96113347	  -3531.53554503	     24.37529197	    -12.08542394	    725.20358312	     32.27199535	     10.97574370	    -21.32443699
      4.65000000	     38.79707656	      7.27810274	      8.66701514	   -108.49760706	    798.91621169	      5.40311898	     17.40975884	     42.58032333	     45.00000000	     45.00000000	    -29.81417163	  -1163.17867944	  -1551.35595829	    145.90561612	   -150.32877605	   1451.55879066	     24.07793828	     17.89718710	     10.92316914	      8.11780410	    -45.00000000	    -45.00000000	     45.00000000	    -16.75794841	   2250.57243015	  -3531.09326444	     24.52323110	    -12.35975028	    725.51326011	     30.88020035	     10.93374253	    -21.20289821
      4.66000000	     38.88644013	      6.74180008	      7.99085162	   -112.80172942	    800.94944781	      5.44082313	     15.68690376	     42.56005024	     45.00000000	     45.00000000	    -28.41622112	  -1163.57874401	  -1551.29283057	    146.26455689	   -150.10900405	   1451.73417131	     24.31453030	     18.23545002	     10.81422260	      7.56590696	    -45.00000000	    -45.00000000	     45.00000000	    -15.49361938	   2251.07636618	  -3530.83975758	     24.18351315	    -12.91409695	    725.70691818	     30.24517609	     10.93605686	    -21.41628077
